<svg width="48" height="48" viewBox="0 0 48 48" fill="none" xmlns="http://www.w3.org/2000/svg">
<rect width="48" height="48" rx="4" fill="#FE4188" fill-opacity="0.05"/>
<path fill-rule="evenodd" clip-rule="evenodd" d="M36.8642 28.3452V18.6386C36.8642 18.0182 36.7021 17.4087 36.394 16.8703C36.0859 16.3319 35.6425 15.8833 35.1076 15.569C32.7718 14.197 28.6456 11.7725 26.1185 10.2875C25.4637 9.9029 24.7166 9.704 23.9573 9.71216C23.198 9.72031 22.4552 9.93523 21.8089 10.3338L13.8301 15.2537C13.1621 15.6656 12.6105 16.2416 12.2279 16.9269C11.8454 17.6121 11.6445 18.3839 11.6445 19.1688V29.1072C11.6445 29.885 11.8482 30.6493 12.2353 31.324C12.6224 31.9986 13.1794 32.5602 13.851 32.9528L22.1652 37.8129C22.7085 38.1305 23.3253 38.301 23.9546 38.3075C24.5839 38.3141 25.204 38.1564 25.7538 37.8502L34.9592 32.7231C35.5362 32.4016 36.0168 31.9318 36.3513 31.3623C36.6859 30.7928 36.8623 30.1443 36.8624 29.4838V28.345H36.864L36.8642 28.3452Z" fill="#FF4088"/>
<path fill-rule="evenodd" clip-rule="evenodd" d="M24.0132 8.63965H24.0352L24.0549 8.64011H24.1672L24.1866 8.64081H24.189L24.2086 8.64173H24.2109L24.2306 8.64243H24.2322L24.2522 8.64312H24.2545L24.2737 8.64405H24.276L24.295 8.64474H24.2966L24.3165 8.64567H24.3188L24.3387 8.64729H24.3411L24.36 8.64868H24.3617L24.3807 8.6503H24.383L24.4029 8.65192H24.4045L24.4237 8.65354H24.426L24.4459 8.65516H24.4483L24.4682 8.65678H24.4705L24.4904 8.6584H24.4927L24.5117 8.65979H24.514L24.5332 8.66141H24.5355L24.5555 8.66303H24.5578L24.5777 8.66535H24.58L24.5999 8.66766H24.6015L24.6205 8.67021H24.6228L24.642 8.67252H24.6444L24.6643 8.67484H24.6666L24.6865 8.67716H24.6881L24.7071 8.6797H24.7094L24.7293 8.68202H24.7316L24.7509 8.68526L24.7532 8.68618L24.7731 8.68919H24.7754L24.7944 8.69244H24.796L24.8159 8.69568H24.8182L24.8372 8.69869H24.8395L24.8588 8.70193H24.8604L24.8803 8.70517H24.8826L24.9016 8.70841L24.9039 8.70911L24.9231 8.71235L24.9254 8.71304L24.9444 8.71698H24.9467L24.9659 8.72022H24.9683L24.9872 8.72415H24.9896L25.0097 8.72809H25.0111L25.0303 8.73203H25.0326L25.0516 8.73619H25.0532L25.0731 8.74013L25.0755 8.74082L25.0954 8.74476H25.097L25.116 8.74939L25.1183 8.75032L25.1375 8.75495H25.1398L25.1597 8.75981L25.1614 8.76074L25.1803 8.76467L25.1827 8.76537L25.2016 8.76953L25.2033 8.77023L25.2225 8.77486H25.2248L25.2438 8.77972L25.2461 8.78065L25.2653 8.78528L25.2669 8.7862L25.2866 8.79083L25.2882 8.79176L25.3074 8.79639L25.3098 8.79732L25.3287 8.80195H25.3304L25.3494 8.8075H25.3517L25.3716 8.81213L25.3739 8.81306L25.3931 8.81769H25.3954L25.4144 8.82348L25.4167 8.82417L25.4359 8.82973L25.4383 8.83066L25.4575 8.83621L25.4598 8.83691L25.4788 8.84246L25.4804 8.84339L25.4994 8.84895L25.5017 8.84964L25.5209 8.8552L25.5232 8.85589L25.5424 8.86145L25.5448 8.86237L25.5637 8.86863L25.5654 8.86955L25.5843 8.8758H25.5867L25.6059 8.88229H25.6082L25.6274 8.88854L25.6297 8.88923L25.6487 8.89571L25.651 8.89641L25.6702 8.90289L25.6719 8.90359L25.6908 8.91007L25.6932 8.91076L25.7121 8.91701L25.7138 8.91794L25.733 8.92419L25.7344 8.92512L25.7529 8.93137L25.7552 8.93229L25.7735 8.93855L25.7758 8.93947L25.7941 8.94642L25.7964 8.94734L25.8154 8.95429L25.8177 8.95522L25.8362 8.96239L25.8376 8.96309L25.8569 8.96957L25.8582 8.97026L25.8775 8.97744L25.8798 8.97837L25.8988 8.98531L25.9011 8.98624L25.9196 8.99319L25.9219 8.99411L25.9402 9.00198L25.9418 9.00291L25.9608 9.00986L25.9631 9.01078L25.9814 9.01865L25.9837 9.01958L26.0029 9.02745L26.0053 9.02838L26.0242 9.03625L26.0259 9.03694L26.0448 9.04505L26.0465 9.04574L26.065 9.05361L26.0664 9.05454L26.0847 9.06241L26.0863 9.06311L26.1053 9.07121L26.1069 9.0719L26.1252 9.08001L26.1275 9.0807L26.1458 9.08857L26.1481 9.0895L26.1666 9.09737L26.168 9.09807L26.1863 9.10686L26.1886 9.10779L26.2069 9.11636L26.2092 9.11728L26.2278 9.12585L26.2291 9.12678L26.2474 9.13557L26.2491 9.13627L26.2673 9.14507L26.2697 9.14576L26.2879 9.15456L26.2903 9.15525L26.3086 9.16405L26.3109 9.16474L26.3294 9.17354L26.3308 9.17447L26.3491 9.18373L26.3507 9.18558L26.369 9.19415L26.3704 9.19507L26.388 9.20434L26.3903 9.20526L26.4086 9.21406L26.4102 9.21475L26.4285 9.22448L26.4308 9.22517L26.4482 9.23467L26.4505 9.23629L26.469 9.24578L26.4713 9.2467L26.4896 9.25597L26.4912 9.25689L26.5086 9.26638L26.5109 9.268L26.5294 9.2775L26.5308 9.27912L26.5484 9.28954L26.5498 9.29116L26.5674 9.30134L26.5697 9.30227L26.5873 9.31246L26.5887 9.31338L26.6063 9.32357L26.6079 9.32519L26.6253 9.33561L26.6276 9.33723L26.6445 9.34742H26.6459L35.6418 14.6331L35.6568 14.6417L35.6584 14.6433L35.6735 14.6521L35.6758 14.6528L35.6901 14.6623L35.6918 14.6639L35.7061 14.6727L35.7075 14.6743L35.7219 14.6829L35.7235 14.6838L35.7378 14.6924L35.7395 14.6933L35.7536 14.7021L35.7552 14.7028L35.7696 14.7116L35.7719 14.7123L35.7862 14.7218L35.7878 14.7227L35.802 14.7322L35.8043 14.7329L35.8186 14.7417L35.8203 14.7426L35.8346 14.7519L35.8362 14.7537L35.8506 14.763L35.8522 14.7648L35.8656 14.7734L35.868 14.7743L35.8823 14.7836L35.8839 14.7845L35.898 14.794L35.8997 14.7949L35.9133 14.8044L35.9147 14.8051L35.9284 14.8149L35.93 14.8156L35.9434 14.825L35.945 14.8267L35.9585 14.8362L35.9601 14.8371L35.9735 14.8473L35.9758 14.8489L35.9895 14.8584L35.9911 14.8593L36.0046 14.8686L36.0062 14.8695L36.0196 14.879L36.0212 14.8806L36.0346 14.8901L36.0363 14.891L36.0497 14.9005L36.0513 14.9021L36.065 14.9116L36.0664 14.9133L36.08 14.9234L36.0823 14.9251L36.0951 14.9355L36.0974 14.9371L36.1108 14.9473L36.1131 14.9482L36.127 14.9584L36.1284 14.96L36.1418 14.9704L36.1435 14.9721L36.1562 14.9822L36.1585 14.9839L36.1722 14.995L36.1745 14.9973L36.2 15.0181L36.203 15.0205L36.2284 15.0418L36.2317 15.0441L36.2578 15.0656L36.2611 15.0679L36.2872 15.0894L36.2905 15.0918L36.3159 15.1133L36.319 15.1165L36.3444 15.1378L36.3474 15.1401L36.3722 15.1626L36.3752 15.1649L36.4 15.1871L36.403 15.1895L36.4278 15.2126L36.431 15.2149L36.4546 15.2372L36.4579 15.2395L36.4824 15.2626L36.4857 15.2656L36.5095 15.2888L36.5127 15.292L36.5366 15.3152L36.5396 15.3182L36.5628 15.3413L36.566 15.3444L36.5889 15.3682L36.5922 15.3714L36.6153 15.3951L36.6176 15.3983L36.6405 15.4221L36.6438 15.4254L36.666 15.4492L36.669 15.4522L36.6912 15.4761L36.6945 15.4793L36.7167 15.5032L36.72 15.5064L36.7422 15.531L36.7454 15.5342L36.7667 15.5597L36.769 15.5627L36.7913 15.5872L36.7945 15.5905L36.816 15.6159L36.8191 15.6192L36.8406 15.6446L36.8429 15.6476L36.8644 15.6731L36.8677 15.6761L36.8883 15.7016L36.8906 15.7048L36.9114 15.7303L36.9144 15.7333L36.9353 15.7597L36.9376 15.7627L36.9573 15.7889L36.9596 15.7921L36.9795 15.8183L36.9818 15.8215L37.0017 15.8477L37.004 15.8516L37.024 15.8787L37.0263 15.882L37.0462 15.9081L37.0485 15.912L37.0677 15.9391L37.07 15.9421L37.089 15.9692L37.0913 15.9725L37.1105 15.9993L37.1129 16.0033L37.1314 16.0304L37.1337 16.0343L37.1518 16.0621L37.1541 16.066L37.1717 16.0931L37.174 16.0963L37.1916 16.1232L37.1939 16.1264L37.2122 16.1542L37.2145 16.1575L37.2321 16.1852L37.2344 16.1892L37.2511 16.217L37.2534 16.2209L37.271 16.2487L37.2733 16.2526L37.29 16.2804L37.2923 16.2843L37.309 16.313L37.3113 16.3161L37.3275 16.3448L37.3298 16.3487L37.3455 16.3774L37.3479 16.3813L37.3638 16.4098L37.3661 16.4138L37.3821 16.4425L37.3837 16.4464L37.3995 16.4758L37.4011 16.4797L37.4162 16.5092L37.4178 16.5131L37.4328 16.5425L37.4351 16.5457L37.4495 16.5758L37.4511 16.5798L37.4662 16.6092L37.4678 16.6131L37.4821 16.6425L37.4845 16.6464L37.4981 16.6765L37.4995 16.6807L37.5132 16.7108L37.5148 16.7147L37.5282 16.7448L37.5298 16.7488L37.5433 16.7789L37.5449 16.783L37.5576 16.8131L37.5592 16.8171L37.5717 16.8472L37.5734 16.8513L37.5854 16.8824L37.587 16.8863L37.5988 16.9164L37.6004 16.9203L37.6123 16.9514L37.6139 16.9553L37.6259 16.9863L37.6275 16.9903L37.6393 17.0213L37.641 17.0252L37.6521 17.0562L37.6537 17.0602L37.6639 17.0912L37.6655 17.0951L37.6759 17.1259L37.6775 17.1301L37.6877 17.1609L37.6893 17.1648L37.6998 17.1968L37.7005 17.2007L37.71 17.2317L37.7116 17.2357L37.7211 17.2674L37.722 17.2713L37.7313 17.303L37.7331 17.307L37.7424 17.3387L37.7442 17.3429L37.7528 17.3746L37.7544 17.3785L37.7632 17.4102L37.7639 17.4142L37.772 17.4459L37.7736 17.4508L37.7822 17.4832L37.7831 17.4873L37.791 17.5198L37.7926 17.5239L37.7996 17.5563L37.8014 17.5603L37.8093 17.5927L37.81 17.5975L37.8172 17.6302L37.8181 17.6341L37.825 17.6665L37.8259 17.6707L37.8322 17.7031L37.8331 17.7073L37.8394 17.7397L37.8403 17.7436L37.8466 17.7763L37.8473 17.7802L37.8528 17.8136L37.8537 17.8175L37.8593 17.8501L37.86 17.8548L37.8655 17.8883L37.8665 17.893L37.8711 17.9263L37.872 17.9309L37.8767 17.9636V17.9668L37.879 17.9844V17.9858L37.8806 18.0025V18.0048L37.8829 18.0217V18.0233L37.8855 18.04V18.0423L37.8878 18.059L37.8887 18.0613L37.891 18.078V18.0803L37.8926 18.0969L37.8933 18.0986L37.8949 18.1152L37.8959 18.1175L37.8975 18.1344V18.1368L37.8989 18.1534L37.8998 18.1557L37.9014 18.1724L37.9021 18.1747L37.9037 18.1916V18.194L37.9054 18.2106V18.2129L37.907 18.2296V18.2319L37.9086 18.2486V18.2509L37.91 18.2678V18.2701L37.9109 18.2868V18.2891L37.9116 18.3067V18.309L37.9132 18.3266V18.328L37.9142 18.3447V18.347L37.9149 18.3639V18.3662L37.9155 18.3829V18.3852L37.9165 18.4019V18.4042L37.9172 18.4218V18.4241L37.9181 18.4408V18.4431L37.9188 18.46V18.4616L37.9197 18.4783V29.562L37.9188 29.5803V29.6035L37.9181 29.6215V29.6238L37.9172 29.6414V29.643L37.9165 29.6613V29.6637L37.9155 29.6812V29.6826L37.9149 29.7002V29.7025L37.9142 29.7201L37.9132 29.7225L37.9125 29.7398V29.7421L37.9116 29.7597V29.7614L37.9109 29.7796V29.782L37.9093 29.8002V29.8019L37.9077 29.8202V29.8225L37.9061 29.8398V29.8422L37.9054 29.8598V29.8621L37.9037 29.8797V29.882L37.9021 29.8996V29.9019L37.9005 29.9193V29.9216L37.8989 29.9392L37.8982 29.9408L37.8966 29.9591L37.8959 29.9614L37.8942 29.979V29.9813L37.8926 29.9987L37.8917 30.001L37.8894 30.0186V30.0209L37.8871 30.0385V30.0401L37.8848 30.0575V30.0598L37.8824 30.0774L37.8815 30.0797L37.8792 30.098L37.8783 30.1003L37.876 30.1179L37.875 30.1202L37.8727 30.1376V30.1399L37.8704 30.1575V30.1598L37.8681 30.1774L37.8672 30.1797L37.8648 30.1973L37.8639 30.1996L37.8609 30.217V30.2186L37.8586 30.2362V30.2376L37.8554 30.2552L37.8544 30.2575L37.8521 30.2751L37.8514 30.2774L37.8491 30.2948V30.2964L37.8459 30.314V30.3156L37.8426 30.333V30.3346L37.8394 30.352V30.3543L37.8361 30.3712L37.8354 30.3735L37.8322 30.3902L37.8315 30.3925L37.8283 30.4101L37.8276 30.4124L37.8236 30.4298V30.4314L37.8195 30.449V30.4506L37.8165 30.4673V30.4696L37.8125 30.487V30.4886L37.8093 30.5062L37.8084 30.5076L37.8044 30.5242V30.5258L37.8005 30.5425V30.5448L37.7965 30.5617L37.7959 30.564L37.7917 30.5807L37.791 30.583L37.7871 30.5997L37.7861 30.6013L37.7822 30.618L37.7815 30.6196L37.7776 30.6363L37.7766 30.6386L37.772 30.6553L37.7711 30.6576L37.7671 30.6745L37.7664 30.6768L37.7618 30.6935V30.6958L37.757 30.7134L37.756 30.7157L37.7514 30.7324V30.7347L37.7465 30.7514L37.7458 30.7537L37.741 30.7706L37.7401 30.7729L37.7354 30.7902L37.7345 30.7919L37.7299 30.8085L37.7289 30.8102L37.7243 30.8268L37.7234 30.8291L37.7178 30.8458L37.7171 30.8481L37.7125 30.865L37.7116 30.8667L37.7069 30.8833L37.706 30.8856L37.7014 30.9023L37.7005 30.9039L37.6949 30.9206L37.6942 30.9229L37.6887 30.9396L37.6877 30.9419L37.6822 30.9586L37.6815 30.9609L37.6759 30.9778L37.675 30.9801L37.6694 30.9968L37.6687 30.9984L37.6632 31.0151L37.6623 31.0174L37.6567 31.034L37.656 31.0364L37.6505 31.053L37.6498 31.0546L37.6442 31.0713L37.6433 31.0736L37.6377 31.0905L37.637 31.0928L37.6305 31.1086L37.6298 31.1109L37.6243 31.1271L37.6234 31.1294L37.6178 31.1452L37.6171 31.1475L37.6116 31.1644L37.6109 31.1667L37.6044 31.1834L37.6037 31.1857L37.5972 31.2017L37.5965 31.204L37.59 31.22L37.5893 31.2223L37.5828 31.238L37.5822 31.2403L37.5759 31.2565L37.575 31.2589L37.5687 31.2746L37.5678 31.2769L37.5615 31.2931L37.5606 31.2945L37.5537 31.3105L37.5528 31.3128L37.5458 31.3295L37.5449 31.3318L37.5384 31.3478L37.5377 31.3501L37.5308 31.366L37.5298 31.3684L37.5227 31.3841L37.5217 31.3864L37.5148 31.4026L37.5139 31.404L37.5069 31.42L37.506 31.4223L37.4988 31.4383L37.4981 31.4397L37.4909 31.4559L37.49 31.4573L37.4831 31.4732L37.4821 31.4746L37.4752 31.4906L37.4743 31.4922L37.4662 31.508L37.4655 31.5096L37.4576 31.5246L37.4567 31.527L37.4497 31.5432L37.4488 31.5446L37.4409 31.5596L37.44 31.5619L37.4331 31.5781L37.4321 31.5795L37.4243 31.5955L37.4233 31.5978L37.4155 31.6138L37.4145 31.6152L37.4067 31.6304L37.406 31.6318L37.3979 31.6478L37.3972 31.6501L37.3893 31.6661L37.3884 31.6684L37.3805 31.6844L37.3789 31.6867L37.371 31.7018L37.3701 31.7034L37.3622 31.7194L37.3615 31.7217L37.3534 31.7374L37.3527 31.7397L37.3439 31.755L37.3423 31.7566L37.3337 31.7717L37.3328 31.7733L37.3242 31.7883L37.3233 31.79L37.3145 31.805L37.3138 31.8066L37.305 31.8217L37.3043 31.8233L37.2955 31.8384L37.2948 31.8407L37.286 31.8557L37.2851 31.8573L37.2765 31.8724L37.2756 31.8747L37.267 31.89L37.2654 31.8916L37.2566 31.9067L37.255 31.9083L37.2462 31.9233L37.2455 31.9249L37.2367 31.94L37.236 31.9423L37.2265 31.9574L37.2256 31.959L37.217 31.9733L37.2161 31.9757L37.2073 31.99L37.2059 31.9916L37.1962 32.0067L37.1955 32.009L37.186 32.0233L37.1844 32.025L37.1749 32.0393L37.174 32.0409L37.1647 32.056L37.1629 32.0583L37.1536 32.0727L37.1518 32.0743L37.1425 32.0884L37.1416 32.09L37.1321 32.1051L37.1311 32.1067L37.1217 32.121L37.12 32.1227L37.1098 32.1368L37.1089 32.1384L37.0994 32.1528L37.0987 32.1544L37.0883 32.1687L37.0876 32.1701L37.0779 32.1845L37.0765 32.1861L37.0668 32.2005L37.0654 32.2021L37.055 32.2162L37.0534 32.2178L37.0439 32.2322L37.0432 32.2338L37.0327 32.2482L37.0311 32.2505L37.0216 32.2648L37.02 32.2662L37.0098 32.2806L37.0082 32.2822L36.9978 32.2965L36.9962 32.2982L36.986 32.3123L36.9844 32.3139L36.9739 32.3283L36.9732 32.3299L36.9628 32.3433L36.9612 32.3449L36.951 32.3584L36.9501 32.36L36.939 32.3734L36.9374 32.375L36.9272 32.3887L36.9262 32.3901L36.9161 32.4044L36.9144 32.4061L36.9033 32.4204L36.9017 32.422L36.8906 32.4355L36.889 32.4371L36.8779 32.4505L36.8772 32.4521L36.866 32.4656L36.8644 32.4672L36.8533 32.4806L36.8517 32.4822L36.8406 32.4959L36.839 32.4973L36.8278 32.5109L36.8262 32.5126L36.8151 32.526L36.8144 32.5276L36.8033 32.541L36.8017 32.5427L36.7899 32.5561L36.7883 32.5577L36.7771 32.5711L36.7755 32.5728L36.7644 32.5862L36.7628 32.5878L36.7517 32.6015L36.7501 32.6028L36.7389 32.6165L36.7373 32.6181L36.7262 32.6306L36.7246 32.6323L36.7128 32.6459L36.7112 32.6475L36.7 32.661L36.6984 32.6626L36.6866 32.676L36.685 32.6776L36.6739 32.6911L36.6723 32.6927L36.6605 32.7054L36.6588 32.707L36.6468 32.7198L36.6452 32.7212L36.6334 32.7339L36.6317 32.7355L36.6199 32.7482L36.6183 32.7499L36.6063 32.7626L36.6049 32.7642L36.5929 32.7767L36.5912 32.7783L36.5794 32.7911L36.5778 32.7927L36.566 32.8054L36.5644 32.8071L36.5516 32.8198L36.55 32.8214L36.538 32.8339L36.5366 32.8355L36.5246 32.8476L36.5229 32.8492L36.5102 32.8617L36.5079 32.8633L36.4951 32.876L36.4935 32.8777L36.481 32.8895L36.4794 32.8911L36.4667 32.9038L36.4651 32.9055L36.4523 32.9173L36.4507 32.9189L36.438 32.9309L36.4366 32.9325L36.4238 32.9443L36.4222 32.946L36.4095 32.9578L36.4079 32.9594L36.3951 32.9714L36.3935 32.9731L36.3808 32.9849L36.3794 32.9865L36.3657 32.9983L36.3641 32.9992L36.3516 33.011L36.35 33.0126L36.3363 33.0245L36.3349 33.0261L36.3213 33.0381L36.3197 33.0388L36.3062 33.0508L36.3046 33.0522L36.2912 33.0633L36.2889 33.065L36.2752 33.0761L36.2738 33.0777L36.2602 33.0897L36.2585 33.0914L36.2451 33.1032L36.2435 33.1048L36.2301 33.1166L36.2284 33.1182L36.215 33.1293L36.2134 33.131L36.199 33.1421L36.1974 33.1428L36.184 33.1539L36.1824 33.1555L36.1689 33.1666L36.1666 33.1682L36.153 33.1793L36.1513 33.181L36.1379 33.1921L36.1363 33.1937L36.1229 33.2048L36.1212 33.2064L36.1069 33.2175L36.1053 33.2192L36.0918 33.2294L36.0902 33.231L36.0761 33.2421L36.0745 33.2437L36.0601 33.2548L36.0585 33.2564L36.0441 33.2676L36.0428 33.2692L36.0284 33.2803L36.0268 33.281L36.0124 33.2914L36.0108 33.2921L35.9967 33.3025L35.9951 33.3032L35.9807 33.3136L35.9784 33.3143L35.964 33.3247L35.9624 33.3264L35.9481 33.3365L35.9467 33.3382L35.9323 33.3486L35.9307 33.35L35.9163 33.3604L35.914 33.362L35.8997 33.3722L35.898 33.3731L35.883 33.3835L35.8807 33.3842L35.8656 33.3947L35.864 33.3961L35.849 33.4065L35.8473 33.4081L35.8323 33.4176L35.8307 33.4192L35.8156 33.4294L35.814 33.431L35.7997 33.4414L35.7973 33.443L35.7823 33.4523L35.7807 33.4532L35.7656 33.4627L35.7633 33.4637L35.748 33.4731L35.7464 33.4748L35.7314 33.4843L35.7297 33.4859L35.7147 33.4954L35.7131 33.4961L35.698 33.5058L35.6957 33.5065L35.6806 33.516L35.679 33.5176L35.664 33.5271L35.6617 33.528L35.6464 33.5373L35.6441 33.5391L35.629 33.5484L35.6267 33.5502L35.6107 33.5595L35.6091 33.5614L35.5941 33.5699L35.5917 33.5709L35.5767 33.5796L35.5751 33.581L35.5591 33.5908L35.5568 33.5922L35.5408 33.6009L35.5392 33.6026L35.5241 33.6114L35.5218 33.6121L35.5058 33.6209L35.5035 33.6216L35.4876 33.6304L35.4862 33.631L35.4709 33.6398L35.4702 33.6408L26.2657 38.7697H26.2648L26.2507 38.7785L26.2484 38.7792L26.2331 38.788L26.2308 38.7896L26.2157 38.7975L26.2134 38.7984L26.1981 38.8063L26.1965 38.807L26.1814 38.8151L26.1791 38.8158L26.1641 38.8237L26.1618 38.8246L26.1465 38.8325L26.1442 38.8332L26.1291 38.8413L26.1275 38.842L26.1125 38.8498L26.1108 38.8508L26.0958 38.8577L26.0942 38.8586L26.0782 38.8667L26.0768 38.8681L26.0615 38.8762L26.0601 38.8769L26.0448 38.8841L26.0435 38.8848L26.0282 38.892L26.0266 38.8929L26.0115 38.9008L26.0099 38.9015L25.9941 38.9086L25.9925 38.9096L25.9775 38.9165L25.9759 38.9174L25.9599 38.9244L25.9585 38.9253L25.9432 38.9325L25.9418 38.9334L25.9265 38.9404L25.9242 38.942L25.9085 38.9492L25.9069 38.9501L25.8909 38.9563L25.8893 38.957L25.8735 38.9642L25.8719 38.9658L25.8559 38.973L25.8536 38.9737L25.8386 38.9802L25.8369 38.9809L25.821 38.9881L25.8193 38.989L25.8036 38.9952L25.802 38.9959L25.786 39.0024L25.7846 39.0031L25.7686 39.0096L25.7663 39.0103L25.7504 39.0168L25.748 39.0175L25.7321 39.0239L25.7297 39.0246L25.7147 39.0309L25.7131 39.0318L25.6971 39.0374L25.6955 39.0381L25.6797 39.0445L25.6774 39.0452L25.6614 39.0517L25.6591 39.0524L25.6432 39.0587L25.6408 39.0596L25.6249 39.0651L25.6225 39.0658L25.6066 39.0723L25.6043 39.073L25.5883 39.0786L25.5869 39.0795L25.5709 39.0851L25.5686 39.0858L25.5526 39.0913L25.5503 39.092L25.5343 39.0976L25.532 39.0985L25.516 39.104L25.5147 39.1047L25.4987 39.1103L25.4827 39.1159L25.4804 39.1168L25.4637 39.1214L25.4614 39.1223L25.4454 39.127L25.4438 39.1279L25.4281 39.1334L25.4264 39.1341L25.4098 39.1388L25.4075 39.1397L25.3915 39.1443L25.3892 39.1453L25.3732 39.1499L25.3709 39.1508L25.3542 39.1564L25.351 39.1573L25.3193 39.1666L25.3153 39.1684L25.2829 39.1777L25.2787 39.1786L25.2463 39.1881L25.2422 39.189L25.2097 39.1978L25.2058 39.1992L25.1732 39.208L25.1692 39.2089L25.1368 39.2175L25.132 39.2184L25.0993 39.2263L25.0954 39.227L25.063 39.2351L25.0581 39.2358L25.0257 39.2437L25.0215 39.2446L24.9891 39.2515L24.9849 39.2525L24.9516 39.2596L24.947 39.2603L24.9136 39.2675L24.9095 39.2684L24.8761 39.2747L24.8722 39.2756L24.8398 39.2812L24.8356 39.2819L24.8032 39.2881L24.7993 39.289L24.7659 39.2946L24.762 39.2953L24.7286 39.3008L24.7245 39.3018L24.6911 39.3064L24.6872 39.3073L24.6539 39.312L24.6499 39.3129L24.6166 39.3175L24.6126 39.3184L24.5793 39.3231L24.5747 39.324L24.5411 39.3279L24.5372 39.3286L24.5038 39.3328L24.4999 39.3335L24.4666 39.3374L24.4332 39.3407H24.4293L24.3959 39.343L24.3918 39.3439L24.3584 39.3462H24.3545L24.3212 39.3485H24.3172L24.2839 39.3509L24.2792 39.3518L24.2457 39.3541H24.2417L24.2084 39.3557H24.2045L24.1711 39.3573H24.1665L24.1332 39.358H24.129L24.0956 39.359H24.0917L24.0584 39.3596H23.941L23.9077 39.359L23.8743 39.358H23.8694L23.8361 39.3573H23.8354L23.8021 39.3557L23.7981 39.355L23.7648 39.3534H23.7609L23.7273 39.3518L23.7234 39.3509L23.69 39.3495H23.6861L23.6527 39.3471L23.6488 39.3462L23.6155 39.343L23.6108 39.3423L23.5773 39.339L23.5726 39.3383L23.5393 39.3351L23.5354 39.3342L23.502 39.3312H23.4979L23.4645 39.3279L23.4606 39.3272L23.4272 39.3231H23.4226L23.3893 39.3191L23.3844 39.3184L23.3511 39.3138L23.3471 39.3129L23.3138 39.3082L23.3099 39.3073L23.2765 39.3027L23.2723 39.3018L23.239 39.2971L23.2351 39.2962L23.2027 39.2907H23.2003L23.1668 39.2842L23.1626 39.2835L23.1302 39.277L23.126 39.2763L23.0936 39.27L23.0894 39.2691L23.057 39.2629L23.0524 39.2619L23.0193 39.2557L23.0151 39.2548L22.9827 39.2478L22.9781 39.2462L22.9454 39.239L22.9413 39.2381L22.9089 39.2302L22.9042 39.2286L22.8718 39.2207L22.8679 39.2191L22.8355 39.2103L22.8313 39.2096L22.7989 39.2008L22.7947 39.1992L22.7623 39.1906L22.7584 39.189L22.7257 39.1802L22.7218 39.1786L22.6894 39.1693L22.6845 39.1675L22.6521 39.1582L22.6479 39.1564L22.6155 39.1471L22.6113 39.1453L22.5789 39.136L22.5748 39.1351L22.5433 39.1247L22.54 39.124L22.5234 39.1184H22.5213L22.5053 39.1135L22.503 39.1128L22.4873 39.1073L22.4849 39.1064L22.4687 39.1008L22.4664 39.1001L22.4507 39.0946L22.4484 39.0936L22.4321 39.0881L22.4298 39.0874L22.4141 39.0818L22.4125 39.0809L22.3967 39.0753L22.3951 39.0746L22.3791 39.0691L22.3775 39.0684L22.3618 39.0619L22.3594 39.0612L22.3432 39.0547L22.3409 39.054L22.3252 39.0476L22.3236 39.0469L22.3076 39.0406L22.3053 39.0397L22.2895 39.0334L22.2879 39.0325L22.2719 39.0263L22.2696 39.0253L22.2536 39.0191L22.252 39.0184L22.2363 39.0119L22.2347 39.0112L22.2187 39.0047L22.2164 39.004L22.2006 38.9975L22.1983 38.9968L22.1821 38.9904L22.1798 38.9897L22.164 38.9834L22.1617 38.9825L22.1455 38.9762L22.1441 38.9753L22.1282 38.9684L22.1258 38.9674L22.1108 38.9605L22.1092 38.9596L22.0934 38.9524L22.0918 38.9515L22.0758 38.9445L22.0742 38.9436L22.0585 38.9373L22.0562 38.9364L22.0409 38.9295L22.0386 38.9286L22.0226 38.9216L22.0203 38.9207L22.0052 38.9135L22.0036 38.9119L21.9885 38.9049L21.9869 38.904L21.9719 38.8968L21.9703 38.8959L21.9543 38.889L21.9529 38.8873L21.9369 38.8792L21.9353 38.8778L21.9202 38.8707L21.9179 38.8697L21.902 38.8628L21.9003 38.8612L21.8853 38.8531L21.883 38.8524L21.867 38.8443L21.8654 38.8436L21.8503 38.8357L21.848 38.8348L21.833 38.8269L21.8313 38.8262L21.8163 38.8181L21.814 38.8165L21.7987 38.8086L21.7971 38.8079L21.782 38.7998L21.7804 38.7991L21.7654 38.7913L21.763 38.7896L21.748 38.7818L21.7464 38.7808L21.7313 38.772L21.729 38.7706L21.7137 38.7625L21.7114 38.7619L21.6964 38.754L21.694 38.7531L21.6788 38.7452L21.6765 38.7443L21.6614 38.7357L21.6591 38.7348L21.6447 38.7262L21.6424 38.7253L21.6281 38.7165L21.6274 38.7158L13.3064 33.8591L13.3057 33.8582L13.2881 33.848L13.2865 33.8471L13.2691 33.8369L13.2668 33.8359L13.2483 33.8258L13.246 33.8248L13.2286 33.8137L13.227 33.813L13.2096 33.8019L13.208 33.8003L13.1904 33.7892L13.189 33.7876L13.1714 33.7764L13.1691 33.7758L13.1515 33.7653L13.1492 33.7637L13.1318 33.7526L13.1302 33.751L13.1126 33.7399H13.1168L13.0992 33.7288L13.0969 33.7271L13.0795 33.716L13.0779 33.7146L13.0603 33.7035L13.058 33.7019L13.0406 33.6899L13.0383 33.6882L13.0209 33.6764L13.0193 33.6748L13.0017 33.6637L13.0001 33.6621L12.9827 33.6503L12.9811 33.6486L12.9637 33.6366L12.9621 33.6352L12.9455 33.6232L12.9431 33.6216L12.926 33.6097L12.9244 33.6081L12.9077 33.5963L12.9056 33.5947L12.889 33.5827L12.8869 33.581L12.8702 33.5692L12.8686 33.5685L12.8519 33.5565L12.8503 33.5549L12.8341 33.5431L12.8322 33.5414L12.816 33.5296L12.8137 33.5287L12.7968 33.5169L12.7954 33.5153L12.7788 33.5026L12.7771 33.5009L12.7605 33.4891L12.7581 33.4875L12.7417 33.4748L12.7394 33.4731L12.7237 33.4604L12.722 33.4588L12.7063 33.4461L12.7047 33.4454L12.6887 33.4326L12.6873 33.431L12.6713 33.4183L12.6697 33.4169L12.654 33.4042L12.6523 33.4025L12.6364 33.3898L12.6347 33.3882L12.619 33.3754L12.6174 33.3738L12.6014 33.3611L12.5998 33.3597L12.584 33.346L12.5824 33.3453L12.5664 33.3326L12.5648 33.331L12.5495 33.3183L12.5479 33.3166L12.5319 33.3032L12.5306 33.3016L12.5146 33.2889L12.513 33.2875L12.4972 33.2738L12.4956 33.2731L12.4799 33.2604L12.4785 33.2588L12.4632 33.246L12.4618 33.2444L12.4465 33.231L12.4451 33.2294L12.4298 33.2159L12.4285 33.2143L12.4132 33.2009L12.4118 33.1993L12.3965 33.1858L12.3951 33.1842L12.3798 33.1705L12.3784 33.1692L12.3632 33.1548L12.3618 33.1539L12.3465 33.1404L12.3442 33.1388L12.3296 33.1247L12.328 33.1231L12.3129 33.1094L12.3113 33.108L12.2965 33.0937L12.2949 33.0921L12.2805 33.0777L12.2791 33.0761L12.2648 33.062L12.2631 33.0603L12.2481 33.046L12.2465 33.0444L12.2314 33.03L12.2298 33.0293L12.2155 33.015L12.2138 33.0133L12.1997 32.9992L12.1981 32.9976L12.1837 32.9832L12.1821 32.9816L12.1678 32.9675L12.1664 32.9659L12.152 32.9515L12.1504 32.9499L12.136 32.9355L12.1344 32.9342L12.121 32.9198L12.1194 32.9182L12.105 32.9038L12.1036 32.9022L12.0893 32.8872L12.0877 32.8855L12.0742 32.8705L12.0726 32.8689L12.0592 32.8538L12.0576 32.8522L12.0432 32.8372L12.0416 32.8355L12.0282 32.8205L12.0265 32.8189L12.0131 32.8038L12.0115 32.8022L11.9981 32.7871L11.9964 32.7855L11.9828 32.7705L11.9814 32.7689L11.9677 32.7538L11.967 32.7522L11.9543 32.7371L11.9527 32.7355L11.9392 32.7205L11.9376 32.7188L11.9233 32.7031L11.9217 32.7015L11.9082 32.6864L11.9066 32.6848L11.8932 32.6688L11.8916 32.6672L11.8788 32.6522L11.8781 32.6505L11.8654 32.6355L11.8638 32.6339L11.851 32.6181L11.8494 32.6165L11.836 32.6005L11.8344 32.5989L11.8216 32.5839L11.82 32.5822L11.8066 32.5672L11.805 32.5656L11.7922 32.5505L11.7906 32.5489L11.7781 32.5332L11.7765 32.5315L11.7638 32.5156L11.7621 32.5139L11.7494 32.4982L11.7478 32.4966L11.735 32.4806L11.7337 32.479L11.7209 32.4632L11.72 32.4616L11.7082 32.4456L11.7066 32.4443L11.6948 32.4283L11.6938 32.4267L11.682 32.4109L11.6804 32.4093L11.6684 32.3926L11.6667 32.391L11.6552 32.375L11.6533 32.3734L11.6415 32.3577L11.6406 32.356L11.6288 32.3394L11.6278 32.3378L11.616 32.3211L11.6153 32.3195L11.6033 32.3037L11.6026 32.3021L11.5906 32.2861L11.589 32.2845L11.5771 32.2678L11.5755 32.2662L11.5637 32.2495L11.5621 32.2472L11.551 32.2306L11.5494 32.2289L11.5382 32.2123L11.5366 32.2106L11.5255 32.194L11.5239 32.1926L11.5128 32.1757L11.5121 32.1743L11.501 32.1576L11.4994 32.1553L11.4882 32.1384L11.4866 32.1368L11.4755 32.1201L11.4739 32.1187L11.4628 32.1021L11.4612 32.1004L11.45 32.0838L11.4484 32.0822L11.4382 32.0655L11.4373 32.0639L11.4271 32.0472L11.4255 32.0449L11.4144 32.0282L11.4128 32.0259L11.4016 32.009L11.401 32.0074L11.3898 31.99L11.3889 31.9877L11.3787 31.971L11.3771 31.9694L11.3667 31.9527L11.3651 31.9511L11.3549 31.9337L11.3533 31.9314L11.3428 31.9145L11.3421 31.9129L11.3317 31.8955L11.331 31.8939L11.3206 31.8773L11.319 31.8749L11.3088 31.8573L11.3072 31.855L11.2968 31.8377L11.2954 31.8353L11.2857 31.8178L11.2843 31.8161L11.2738 31.7988L11.2732 31.7971L11.2634 31.7795L11.2627 31.7779L11.2532 31.7606L11.2523 31.7582L11.2431 31.7407L11.2412 31.7383L11.2319 31.7207L11.231 31.7184L11.2215 31.7001L11.2206 31.6985L11.2113 31.6812L11.2104 31.6788L11.2007 31.6612L11.2 31.6589L11.1905 31.6416L11.1896 31.6392L11.181 31.6207L11.1801 31.6193L11.1708 31.6008L11.1699 31.5985L11.1604 31.5802L11.1588 31.5788L11.15 31.5603L11.1493 31.5589L11.1405 31.5413L11.1396 31.539L11.131 31.5207V31.5216L11.1222 31.5031L11.1206 31.5008L11.1118 31.4827L11.1111 31.4804L11.1023 31.4628L11.1016 31.4605L11.0928 31.442L11.0921 31.4406L11.0833 31.4223L11.0826 31.4207L11.0745 31.4024L11.0738 31.4008L11.065 31.3827L11.0643 31.3811L11.0555 31.3626L11.0546 31.3612L11.046 31.3429L11.0451 31.3406L11.0372 31.3221L11.0365 31.3207L11.0277 31.3024L11.0268 31.3001L11.0182 31.2818L11.0173 31.2802L11.0094 31.2619L11.0088 31.2602L11.0006 31.2422L11 31.2399L10.9921 31.2213L10.9912 31.22L10.9842 31.2014L10.9833 31.2L10.9754 31.1818L10.9745 31.1794L10.9675 31.1602L10.9666 31.1588L10.9587 31.1403L10.9578 31.138L10.9509 31.1206L10.9499 31.1183L10.9421 31.0991L10.9411 31.0975L10.9342 31.0785L10.9333 31.0762L10.9261 31.0572L10.9252 31.0556L10.9182 31.0364L10.9173 31.034L10.9104 31.0151L10.9094 31.0134L10.9023 30.9945L10.9016 30.9928L10.8951 30.9736L10.8944 30.9713L10.8872 30.9523L10.8863 30.9507L10.88 30.9317L10.8793 30.9294L10.8728 30.9102L10.8722 30.9079L10.865 30.8889L10.864 30.8866L10.8578 30.8673L10.8571 30.8657L10.8506 30.8467L10.8499 30.8451L10.8434 30.8261L10.8427 30.8238L10.8363 30.8046L10.8356 30.8023L10.8293 30.7831L10.8284 30.7808L10.8221 30.7618L10.8212 30.7595L10.815 30.7402L10.8143 30.7379L10.8087 30.7189L10.8078 30.7173L10.8015 30.6974L10.8006 30.6951L10.7951 30.6752L10.7944 30.6729L10.7888 30.6539L10.7881 30.6516L10.7826 30.6323L10.7816 30.63L10.7761 30.6101L10.7754 30.6078L10.7698 30.5879L10.7689 30.5863L10.7633 30.5666L10.7626 30.5657L10.7571 30.5458L10.7562 30.5444L10.7515 30.5252L10.7506 30.5235L10.746 30.5045V30.5029L10.7404 30.483V30.4807L10.7358 30.4617L10.7349 30.4594L10.7302 30.4402L10.7293 30.4379L10.7247 30.418H10.7254L10.7207 30.3983L10.7198 30.3967L10.7152 30.3767L10.7143 30.3751L10.7096 30.3552L10.7087 30.3538L10.7041 30.3339L10.7045 30.333L10.6999 30.3133L10.699 30.311L10.6943 30.2911L10.6934 30.2888L10.6895 30.2689L10.6888 30.2665L10.6842 30.2466L10.6832 30.245L10.6793 30.2251L10.6784 30.2228L10.6744 30.2029L10.6737 30.2006L10.6698 30.1806L10.6656 30.1607V30.1584L10.6617 30.1376V30.1353L10.6578 30.1156L10.6571 30.1133L10.6524 30.0941V30.0917L10.6483 30.0702L10.6476 30.0679L10.6434 30.0471L10.6427 30.0447L10.6395 30.0251L10.6388 30.0227L10.6355 30.0028V30.0005L10.6323 29.9806V29.9783L10.6293 29.9584L10.6284 29.9561L10.6253 29.9362V29.9368L10.6221 29.9169V29.9155L10.6189 29.8956V29.8933L10.6156 29.8734V29.8711L10.6126 29.8512V29.8496L10.6103 29.8287V29.8264L10.608 29.8067V29.8051L10.6045 29.7843L10.6038 29.782L10.6015 29.7623V29.76L10.5992 29.7391L10.5983 29.7368L10.5959 29.716V29.7137L10.5936 29.6931L10.5927 29.6907L10.5904 29.6699V29.6676L10.5881 29.647L10.5871 29.6456L10.5848 29.6248L10.5832 29.6041V29.6018L10.5809 29.581L10.58 29.5787L10.5777 29.5581V29.5558L10.576 29.5349L10.5753 29.5326L10.5737 29.512V29.5097L10.5721 29.4891V29.4868L10.5705 29.4659L10.5689 29.4453V29.443L10.5672 29.4222V29.4199L10.5656 29.3993V29.3738L10.5649 29.3529V29.3506L10.564 29.33V29.3277L10.5633 29.3069L10.5626 29.3046L10.5617 29.284V29.2617L10.561 29.2411V29.2388L10.5601 29.218V19.1666L10.561 19.1467V19.1212L10.5617 19.1006V19.0277L10.5626 19.0068V19.0054L10.5633 18.9846V18.9823L10.564 18.9617V18.9594L10.5649 18.9385V18.9371L10.5656 18.9163V18.914L10.5665 18.8934V18.8911L10.5682 18.8698V18.8675L10.5696 18.8466V18.845L10.5705 18.8244V18.8221L10.5721 18.8012V18.7989L10.5728 18.7783V18.776L10.5737 18.7552V18.7529L10.5753 18.7322V18.7299L10.5767 18.7091V18.7068L10.579 18.6862V18.6839L10.5809 18.663L10.5816 18.6616L10.5832 18.6408V18.6394L10.5855 18.6186V18.6172L10.5878 18.5963L10.5888 18.594L10.5911 18.5734V18.5711L10.5934 18.5505V18.5489L10.5957 18.528V18.5267L10.5983 18.5058L10.599 18.5035L10.6013 18.4829V18.4806L10.6038 18.4607V18.4584L10.6061 18.4377V18.4354L10.6084 18.4146L10.6094 18.4123L10.6117 18.3926V18.3903L10.6149 18.3694V18.3671L10.6172 18.3463L10.6182 18.344L10.6205 18.3243L10.6212 18.322L10.6244 18.3011L10.6253 18.2995L10.6284 18.2789V18.2773L10.6316 18.2567V18.2551L10.6348 18.2354L10.6355 18.2331L10.6388 18.2129V18.2106L10.6443 18.19L10.645 18.1877L10.6483 18.1678V18.1655L10.6522 18.1456V18.1439L10.6561 18.124V18.1226L10.6601 18.1018L10.661 18.1004L10.6649 18.0805L10.6656 18.0789L10.6698 18.059L10.6705 18.0567L10.6744 18.0367L10.6754 18.0344L10.6793 18.0145V18.0122L10.6832 17.9923V17.9907L10.6872 17.971L10.6879 17.9694L10.692 17.9495L10.6927 17.9478L10.6974 17.9279V17.9256L10.7022 17.9057L10.7031 17.9034L10.7071 17.8835L10.7078 17.8812L10.7124 17.8613V17.8589L10.7173 17.839L10.7182 17.8367L10.7228 17.8168V17.8145L10.7275 17.7946L10.7284 17.793L10.733 17.7733V17.7717L10.7381 17.7517L10.7388 17.7494L10.7444 17.7295V17.7279L10.7499 17.708V17.7066L10.7555 17.6867L10.7562 17.6844L10.7617 17.6645V17.6621L10.7673 17.6422L10.7682 17.6399L10.7738 17.6207L10.7744 17.6191L10.78 17.5994L10.7809 17.5973L10.7865 17.5774L10.7872 17.5751L10.7927 17.5556L10.7937 17.554L10.7999 17.5343L10.8006 17.5327L10.8062 17.5137L10.8071 17.5121L10.8127 17.4927L10.8133 17.4913L10.8189 17.4714L10.8198 17.469L10.8261 17.4498L10.827 17.4475L10.8333 17.4283V17.4267L10.8395 17.4077V17.4054L10.846 17.3862L10.8467 17.3845L10.8532 17.3656L10.8539 17.3632L10.8603 17.344L10.861 17.3417L10.8675 17.3227L10.8682 17.3204L10.8745 17.3012L10.8754 17.2996L10.8823 17.2806L10.8833 17.279L10.8897 17.26L10.8904 17.2579L10.8967 17.2389L10.8976 17.2373L10.9046 17.2183L10.9055 17.2167L10.9127 17.1977V17.1961L10.9196 17.1771L10.9205 17.1755L10.9277 17.1563L10.9286 17.1539L10.9356 17.135L10.9365 17.1333L10.9435 17.1144L10.9444 17.112L10.9523 17.0935L10.9532 17.0921L10.9611 17.0729L10.962 17.0713L10.9699 17.0523L10.9706 17.05L10.9787 17.031L10.9793 17.0287L10.9872 17.0095L10.9881 17.0072L10.996 16.9879L10.9967 16.9856L11.0048 16.9666L11.0055 16.9643L11.0134 16.9451L11.0143 16.9433L11.0222 16.9247L11.0231 16.9224L11.031 16.9044L11.0317 16.902L11.0398 16.8828L11.0405 16.8812L11.0493 16.8622L11.05 16.8606L11.0588 16.8423L11.0595 16.8407L11.0676 16.8224L11.0683 16.8201L11.0771 16.8018L11.0777 16.8002L11.0865 16.7819L11.0872 16.7805L11.096 16.762L11.097 16.7606L11.1055 16.7423L11.1065 16.74L11.115 16.7215L11.1159 16.7201L11.1247 16.7018L11.1254 16.6995L11.1342 16.6809L11.1349 16.6796L11.1437 16.6613L11.1444 16.6596L11.1532 16.6414L11.1539 16.64L11.1627 16.6214L11.1636 16.6201L11.1729 16.6025L11.1738 16.6011L11.1833 16.5825L11.1849 16.5802L11.1944 16.5622L11.1954 16.5605L11.2049 16.542L11.2055 16.5397L11.2153 16.5223L11.216 16.5207L11.2255 16.5034L11.2264 16.5017L11.2356 16.4841L11.2366 16.4818L11.2461 16.4645L11.2477 16.4628L11.2572 16.4452L11.2581 16.4429L11.2674 16.4256L11.2692 16.4239L11.2785 16.4064L11.2794 16.405L11.2889 16.3874L11.2905 16.3851L11.3009 16.3675L11.3016 16.3658L11.3111 16.3485L11.312 16.3469L11.3225 16.3295L11.3232 16.3279L11.3336 16.3103L11.3343 16.3089L11.3447 16.2913L11.3461 16.2897L11.3565 16.2723L11.3572 16.2707L11.3676 16.2533L11.3692 16.2517L11.3794 16.2341L11.3803 16.2325L11.3905 16.2151L11.3922 16.2135L11.4026 16.1961L11.4033 16.1945L11.4144 16.1769L11.416 16.1746L11.4271 16.1572L11.428 16.1556L11.4382 16.1389L11.4398 16.1373L11.451 16.1207L11.4526 16.119L11.463 16.1017L11.4637 16.1L11.4748 16.0834L11.4755 16.0818L11.4866 16.0651L11.4882 16.0635L11.4994 16.0459L11.501 16.0445L11.5121 16.0278L11.513 16.0255L11.5241 16.0086L11.5248 16.007L11.5359 15.9903L11.5366 15.9889L11.5487 15.9722L11.5503 15.9706L11.5614 15.954L11.563 15.9523L11.5748 15.9357L11.5755 15.934L11.5876 15.9174L11.5883 15.9158L11.6003 15.8991L11.601 15.8975L11.613 15.8808L11.6147 15.8792L11.6262 15.8625L11.6272 15.8609L11.6392 15.8442L11.6408 15.8428L11.6526 15.8268L11.6535 15.8252L11.6654 15.8086L11.667 15.8069L11.6788 15.7912L11.6804 15.7896L11.6924 15.7736L11.6938 15.772L11.7059 15.7562L11.7075 15.7546L11.7193 15.7386L11.7202 15.737L11.732 15.7213L11.7337 15.7197L11.7464 15.7037L11.748 15.7023L11.7607 15.6863L11.7621 15.6847L11.7749 15.6689L11.7765 15.6673L11.7892 15.6514L11.7908 15.6497L11.8036 15.634L11.8052 15.6317L11.8177 15.6155L11.8186 15.6141L11.8314 15.5981L11.833 15.5965L11.8455 15.5807L11.8471 15.5791L11.8598 15.5641L11.8615 15.5624L11.8742 15.5465L11.8758 15.5451L11.8885 15.5291L11.8899 15.5275L11.9036 15.5124L11.9052 15.5108L11.9179 15.4948L11.9193 15.4935L11.9321 15.4782L11.9337 15.4768L11.9464 15.4608L11.948 15.4592L11.9615 15.4434L11.9624 15.4418L11.9758 15.4268L11.9774 15.4252L11.9909 15.4101L11.9925 15.4085L12.0059 15.3934L12.0075 15.3918L12.021 15.3768L12.0219 15.3751L12.0353 15.3601L12.037 15.3585L12.0504 15.3432L12.052 15.3418L12.0654 15.3265L12.0664 15.3251L12.0798 15.3099L12.0814 15.3085L12.0958 15.2932L12.0965 15.2918L12.1108 15.2765L12.1124 15.2751L12.1275 15.2608L12.1291 15.2592L12.1432 15.2441L12.1448 15.2425L12.1592 15.2274L12.1608 15.2258L12.1752 15.2115L12.1766 15.2098L12.1909 15.1957L12.1925 15.1941L12.2069 15.1797L12.2085 15.1781L12.2236 15.1638L12.2252 15.1624L12.2393 15.148L12.2409 15.1464L12.2553 15.132L12.2569 15.1304L12.2713 15.1163L12.2726 15.1147L12.287 15.1003L12.2886 15.0987L12.303 15.0846L12.3046 15.083L12.3187 15.0686L12.3203 15.067L12.3347 15.0526L12.3363 15.051L12.3514 15.0376L12.353 15.036L12.368 15.0225L12.3697 15.0209L12.3847 15.0066L12.3863 15.0052L12.4014 14.9908L12.403 14.9899L12.418 14.9765L12.4197 14.9758L12.4347 14.9621L12.4363 14.9607L12.4514 14.9471L12.453 14.9454L12.468 14.932L12.4697 14.9304L12.4847 14.917L12.4863 14.9163L12.5023 14.9026L12.5037 14.901L12.5197 14.8876L12.5213 14.8859L12.537 14.8725L12.5387 14.8709L12.5546 14.8582L12.5563 14.8565L12.572 14.8438L12.5736 14.8424L12.5887 14.8297L12.5903 14.8281L12.6063 14.8153L12.6079 14.8137L12.6236 14.801L12.6253 14.8003L12.6412 14.7875L12.6426 14.7859L12.6588 14.7732L12.6602 14.7716L12.6762 14.7588L12.6776 14.7574L12.6942 14.7447L12.6959 14.7431L12.7118 14.7304L12.7135 14.7287L12.7301 14.716L12.7318 14.7144L12.7484 14.7019L12.7498 14.7003L12.7658 14.6875L12.7674 14.6866L12.7841 14.6741L12.7857 14.6725L12.8014 14.6597L12.8031 14.6581L12.8197 14.6463L12.8214 14.6447L12.838 14.632L12.8396 14.6303L12.8563 14.6185L12.8579 14.6176L12.8746 14.6058L12.8769 14.6042L12.8936 14.5921L12.8952 14.5914L12.9119 14.5794L12.9135 14.578L12.9302 14.5653L12.9318 14.5643L12.9492 14.5525L12.9508 14.5509L12.9674 14.5391L12.9698 14.5382L12.9864 14.5264L12.9881 14.5255L13.0047 14.5136L13.0063 14.5127L13.0239 14.5009L13.0253 14.4993L13.042 14.4875L13.0436 14.4866L13.0612 14.4754L13.0628 14.4747L13.0795 14.4627L13.0818 14.4611L13.0992 14.45L13.1008 14.4486L13.1184 14.4365L13.12 14.4349L13.1374 14.4238L13.1397 14.4231L13.1573 14.412L13.1589 14.4104L13.1763 14.3993L13.1779 14.3986L13.1953 14.3875L13.1969 14.3865L13.2145 14.3754L13.2159 14.3747L13.2335 14.3636L13.2358 14.3627L13.2534 14.3525H13.2541L21.2342 9.42961L21.2352 9.42868L21.2518 9.4185L21.2535 9.41757L21.2708 9.40646L21.2731 9.40484L21.2907 9.39465L21.2931 9.39303L21.3106 9.38261L21.313 9.38122L21.3303 9.3708L21.3326 9.37011L21.3512 9.35969L21.3526 9.35807L21.3701 9.34788L21.3725 9.34695L21.3901 9.33677L21.3914 9.33584L21.41 9.32635L21.4114 9.32473L21.4296 9.31524L21.4313 9.31361L21.4486 9.30412L21.4509 9.30343L21.4695 9.2937L21.4709 9.29231L21.4885 9.28259L21.4908 9.28097L21.5081 9.27171L21.5105 9.26986L21.528 9.2606L21.5297 9.25874L21.548 9.24948L21.5496 9.24856L21.5669 9.23906L21.5693 9.23814L21.5869 9.22888L21.5892 9.22795L21.6077 9.21846L21.61 9.21753L21.6281 9.20804L21.6297 9.20735L21.648 9.19855L21.6503 9.19762L21.6688 9.18905L21.6711 9.18813L21.6885 9.17956L21.6908 9.17864L21.7093 9.16984L21.7107 9.16914L21.729 9.16035L21.7313 9.15965L21.7496 9.15085L21.7519 9.14923L21.7705 9.14067L21.7728 9.13974L21.7908 9.13094L21.7931 9.13025L21.8117 9.12238L21.814 9.12145L21.8323 9.11358L21.8339 9.11196L21.8519 9.10409L21.8536 9.10316L21.8721 9.09529L21.8744 9.09367L21.8925 9.0858L21.8948 9.08487L21.9133 9.077L21.9156 9.0763L21.9339 9.0682L21.9362 9.0675L21.9545 9.05963L21.9568 9.05871L21.9751 9.05084L21.9774 9.05014L21.996 9.04296L21.9983 9.04204L22.0163 9.03417L22.0186 9.03347L22.0379 9.02537L22.0402 9.02467L22.0592 9.0168L22.0615 9.01518L22.08 9.008L22.0814 9.00708L22.1006 9.00013L22.1029 8.99921L22.1212 8.99226L22.1228 8.99133L22.1418 8.98416L22.1441 8.98323L22.1633 8.97698L22.1657 8.97628L22.1846 8.96911L22.187 8.96818L22.2062 8.96124L22.2085 8.96031L22.2275 8.95406L22.2298 8.95313L22.249 8.94688L22.2513 8.94595L22.2699 8.9397L22.2722 8.93878L22.2912 8.93253L22.2935 8.93183L22.3118 8.92535L22.3141 8.92465L22.3333 8.91817L22.3347 8.91748L22.3539 8.91099L22.3562 8.9103L22.3752 8.90405L22.3775 8.90312L22.3967 8.89687L22.399 8.89595L22.418 8.89039L22.4196 8.88969L22.4389 8.88414L22.4412 8.88321L22.4602 8.87766H22.4625L22.4817 8.8721L22.484 8.8714L22.503 8.86585L22.5046 8.86515L22.5238 8.8596L22.5252 8.85867L22.5444 8.85311L22.5468 8.85242L22.5657 8.84686L22.5681 8.84594L22.5873 8.84038L22.5896 8.83969L22.6088 8.83505L22.6111 8.83413L22.6301 8.8295L22.6317 8.82857L22.6507 8.82302L22.6528 8.82209L22.6725 8.81746H22.6741L22.6931 8.8119H22.6954L22.7151 8.80727L22.7174 8.80635L22.7373 8.80172L22.7396 8.80079L22.7588 8.79616H22.7611L22.7811 8.7913H22.7834L22.8026 8.78643L22.8049 8.78574L22.8239 8.78157L22.8262 8.78088L22.8454 8.77625L22.8477 8.77532L22.8667 8.77139H22.869L22.8883 8.76745L22.8906 8.76652L22.9098 8.76259H22.9112L22.9304 8.75865L22.9327 8.75796L22.9526 8.75379H22.9542L22.9739 8.74985L22.9755 8.74916L22.9954 8.74522L22.9978 8.7443L23.0177 8.74036L23.02 8.73967L23.0399 8.73643H23.0422L23.0614 8.73318L23.0637 8.73249L23.0837 8.72855L23.086 8.72763L23.1059 8.72462H23.1082L23.1272 8.72138L23.1295 8.72045L23.1494 8.71744L23.1517 8.71651L23.1709 8.7135H23.1726L23.1915 8.71026H23.1939L23.2138 8.70702L23.2161 8.70633L23.236 8.70309H23.2383L23.2582 8.69984H23.2605L23.2805 8.69683H23.2828L23.3027 8.69452H23.305L23.3242 8.69197H23.3265L23.3464 8.68966L23.3488 8.68873L23.3687 8.68642L23.3703 8.68549L23.39 8.6841H23.3923L23.4115 8.68179H23.4138L23.433 8.67947H23.4353L23.455 8.67669H23.4573L23.4772 8.67438H23.4796L23.4985 8.67276H23.5009L23.5208 8.67044L23.5231 8.66952L23.543 8.66789L23.5453 8.6672L23.5652 8.66558H23.5675L23.5872 8.66396H23.5895L23.6094 8.66234H23.6118L23.6317 8.66164L23.634 8.66072L23.6539 8.6591L23.6555 8.6584L23.6754 8.65748H23.6777L23.6977 8.65609H23.699L23.719 8.65516H23.7213L23.7412 8.65447H23.7435L23.7634 8.65354H23.7657L23.7861 8.65308L23.7884 8.65215L23.8083 8.65146H23.8106L23.8306 8.65076H23.8329L23.8528 8.64984H23.8551L23.875 8.64914H23.8773L23.8972 8.64821H23.8989L23.9188 8.64752H23.9433L23.9632 8.64659H24.0093L24.0135 8.63965H24.0132ZM23.9949 10.7836H23.956L23.9424 10.784L23.929 10.7843L23.9155 10.7847L23.9021 10.7854L23.8884 10.7863L23.875 10.787L23.8623 10.788L23.8488 10.7887L23.8361 10.7896L23.8234 10.7903L23.8106 10.791L23.7972 10.7919L23.7845 10.7926L23.7711 10.7942L23.7574 10.7958L23.7449 10.7975L23.7312 10.7991L23.7178 10.8007L23.7044 10.8021L23.6916 10.8037L23.6782 10.8053L23.6655 10.8069L23.6527 10.8086L23.6391 10.8102L23.6266 10.8118L23.6138 10.8132L23.6011 10.8148L23.5884 10.8164L23.575 10.8181L23.5622 10.8204L23.5495 10.822L23.5361 10.8243L23.5233 10.8266L23.5106 10.8292L23.4979 10.8315L23.4851 10.8338L23.4724 10.8361L23.4597 10.8387L23.4472 10.8403L23.4335 10.8426L23.4208 10.8449L23.4073 10.8472L23.3946 10.8498L23.3819 10.8521L23.3691 10.8544L23.3566 10.8576L23.3439 10.8609L23.3312 10.8641L23.3184 10.8664L23.3057 10.8688L23.293 10.872L23.2802 10.8752L23.2677 10.8785L23.255 10.8815L23.2423 10.8847L23.2295 10.888L23.2168 10.8912L23.204 10.8942L23.1913 10.8975L23.1786 10.9007L23.1661 10.9046L23.1533 10.9079L23.1406 10.9118L23.1286 10.9158L23.1161 10.9197L23.1033 10.9236L23.0906 10.9276L23.0779 10.9315L23.0651 10.9357L23.0533 10.9396L23.0406 10.9435L23.0279 10.9482L23.0151 10.9523L23.0024 10.9563L22.9897 10.9609L22.9769 10.9648L22.9644 10.969L22.9524 10.9729L22.9396 10.9776L22.9269 10.9822L22.9142 10.9871L22.9024 10.9919L22.8896 10.9966L22.8778 11.0014L22.8658 11.0061L22.8531 11.0118L22.8406 11.0165L22.8278 11.0211L22.8151 11.026L22.803 11.0318L22.7912 11.0364L22.7785 11.0419L22.7667 11.0475L22.7547 11.0531L22.7429 11.0586L22.7301 11.0642L22.7181 11.0697L22.7056 11.0753L22.6935 11.0808L22.6817 11.0864L22.6697 11.092L22.657 11.0975L22.6452 11.1031L22.6333 11.1086L22.6213 11.1151L22.6095 11.1214L22.5975 11.1269L22.5856 11.1332L22.5736 11.1387L22.5618 11.1452L22.5498 11.1515L22.538 11.1579L22.5261 11.1642L22.5141 11.1707L22.5023 11.1776L22.4912 11.1841L22.4791 11.1903L22.468 11.1968L22.4562 11.2038L22.4442 11.2112L22.4324 11.2181L22.4213 11.2246L22.4092 11.2316L22.3981 11.239L22.3863 11.2459L22.3745 11.2531L22.3618 11.2612L14.3904 16.1741L14.3765 16.1829L14.364 16.1908L14.3522 16.1989L14.3402 16.2068L14.3283 16.2147L14.3163 16.2228L14.3045 16.2306L14.2925 16.2385L14.2806 16.2464L14.2686 16.2545L14.2568 16.2623L14.245 16.2702L14.233 16.279L14.2218 16.2869L14.2107 16.295L14.1989 16.3029L14.1878 16.3107L14.1767 16.3186L14.1656 16.3267L14.1545 16.3346L14.1434 16.3425L14.1322 16.3506L14.1211 16.3591L14.11 16.3672L14.0989 16.3758L14.0878 16.3846L14.0767 16.3934L14.0656 16.4022L14.0545 16.4108L14.0433 16.4196L14.0329 16.4283L14.0218 16.4369L14.0107 16.4457L14.0003 16.4545L13.9892 16.4633L13.978 16.4719L13.9679 16.4807L13.9567 16.4895L13.9463 16.498L13.9361 16.5068L13.9257 16.5163L13.9153 16.5261L13.9051 16.5346L13.8947 16.5434L13.8845 16.5529L13.8741 16.5624L13.8637 16.5719L13.8535 16.5816L13.8431 16.5909L13.8329 16.6006L13.8225 16.6101L13.8123 16.6196L13.8019 16.6291L13.7914 16.6386L13.7813 16.6483L13.7718 16.6576L13.7613 16.6673L13.7518 16.6777L13.7414 16.687L13.7322 16.6974L13.7224 16.7069L13.713 16.7173L13.7035 16.7268L13.694 16.7372L13.6842 16.7474L13.6741 16.7578L13.6646 16.7673L13.6551 16.7777L13.6453 16.7879L13.6361 16.7983L13.6273 16.8085L13.6176 16.8189L13.6083 16.8293L13.5986 16.8395L13.5891 16.8506L13.5796 16.8611L13.5708 16.8713L13.562 16.8817L13.5527 16.8928L13.5437 16.903L13.5344 16.9134L13.5256 16.9245L13.5169 16.9349L13.5081 16.946L13.4993 16.9572L13.4907 16.9683L13.4819 16.9794L13.4731 16.9905L13.4645 17.0016L13.4564 17.0127L13.4479 17.0238L13.4391 17.0349L13.4303 17.0461L13.4215 17.0572L13.4136 17.0683L13.4057 17.0794L13.3976 17.0905L13.3897 17.1023L13.3819 17.1134L13.374 17.1245L13.3659 17.1366L13.358 17.1477L13.3502 17.1588L13.3421 17.1699L13.3342 17.181L13.3272 17.1928L13.3191 17.2049L13.3113 17.216L13.3032 17.2278L13.2962 17.2396L13.289 17.2507L13.2819 17.2628L13.2747 17.2746L13.2675 17.2866L13.2606 17.2984L13.2525 17.3105L13.2446 17.3223L13.2374 17.3343L13.2302 17.3461L13.223 17.3579L13.2161 17.37L13.2087 17.3818L13.2017 17.3938L13.1946 17.4056L13.1874 17.4177L13.1802 17.4295L13.173 17.4415L13.1661 17.454L13.1587 17.466L13.1517 17.4778L13.1443 17.4906L13.1381 17.5026L13.1318 17.5151L13.1253 17.5279L13.1191 17.5406L13.1126 17.5526L13.1064 17.5644L13.0999 17.5772L13.0936 17.589L13.0874 17.6017L13.0818 17.6138L13.0753 17.6265L13.0691 17.639L13.0626 17.6517L13.0564 17.6645L13.0499 17.6772L13.0443 17.6899L13.0388 17.7027L13.0332 17.7154L13.0276 17.7281L13.0221 17.7406L13.0165 17.7534L13.011 17.7661L13.0054 17.7788L12.9999 17.7916L12.9952 17.8043L12.9897 17.817L12.9841 17.8305L12.9786 17.8432L12.973 17.8559L12.9674 17.8687L12.9628 17.8812L12.957 17.8948L12.9515 17.9076L12.9468 17.9201L12.942 17.9337L12.9373 17.9465L12.9325 17.9599L12.9279 17.9726L12.923 17.986L12.9184 17.9995L12.9135 18.0131L12.9093 18.0266L12.9047 18.0393L12.9001 18.0527L12.8959 18.0661L12.892 18.0789L12.888 18.0925L12.8834 18.106L12.8792 18.1187L12.8753 18.1314L12.8714 18.1449L12.8667 18.1583L12.8626 18.172L12.8586 18.1845L12.8547 18.1981L12.8508 18.2115L12.8466 18.225L12.8427 18.2386L12.8387 18.2521L12.8355 18.2655L12.8325 18.2789L12.8285 18.2926L12.8253 18.306L12.8214 18.3194L12.8181 18.3331L12.8149 18.3465L12.8119 18.3609L12.8086 18.3743L12.8054 18.3877L12.8021 18.4014L12.7991 18.4148L12.7959 18.4283L12.7926 18.4419L12.7903 18.4553L12.7871 18.4688L12.7848 18.4822L12.7825 18.4966L12.7801 18.5109L12.7778 18.5253L12.7753 18.5394L12.773 18.553L12.7706 18.5665L12.7681 18.5808L12.7658 18.595L12.7635 18.6086L12.7612 18.622L12.7586 18.6355L12.7563 18.6498L12.7547 18.6642L12.7531 18.6783L12.7514 18.692L12.7491 18.7061L12.7468 18.7197L12.7452 18.7339L12.7436 18.7482L12.7419 18.7626L12.7403 18.7769L12.7387 18.7911L12.7371 18.8054L12.7355 18.8188L12.7341 18.8332L12.7324 18.8475L12.7315 18.8619L12.7299 18.876L12.7285 18.8904L12.7276 18.9047L12.7269 18.9191L12.726 18.9332L12.7253 18.9476L12.7243 18.9619L12.7237 18.976L12.723 18.9904L12.722 19.0047L12.7213 19.0191L12.7204 19.0332V19.0476L12.7197 19.0619L12.7188 19.0763V19.0904L12.7181 19.1048V29.1724L12.7188 29.1867V29.2295L12.7197 29.243L12.7204 29.2573L12.7213 29.2717L12.722 29.2858L12.723 29.3002L12.7237 29.3145L12.7243 29.3289L12.7253 29.343L12.726 29.3573L12.7276 29.3717L12.7285 29.3858L12.7292 29.4002L12.7299 29.4145L12.7315 29.428L12.7331 29.4423L12.7348 29.4557L12.7355 29.4701L12.7371 29.4835L12.7387 29.4972L12.7403 29.5106L12.7419 29.524L12.7436 29.5384L12.7452 29.5518L12.7466 29.5655L12.7482 29.5796L12.7498 29.594L12.7514 29.6074L12.7531 29.6217L12.7554 29.6352L12.7577 29.6488L12.76 29.6623L12.7625 29.6757L12.7649 29.69L12.7672 29.7035L12.7695 29.7171L12.772 29.7306L12.7744 29.744L12.7776 29.7574L12.7799 29.7711L12.7822 29.7845L12.7848 29.7979L12.788 29.8116L12.791 29.825L12.7933 29.8385L12.7966 29.8521L12.7998 29.8655L12.8031 29.879L12.8063 29.8924L12.8093 29.9061L12.8126 29.9195L12.8158 29.9329L12.8188 29.9456L12.823 29.9584L12.826 29.9718L12.8292 29.9855L12.8325 29.9989L12.8364 30.0123L12.8396 30.0251L12.8427 30.0385L12.8459 30.0512L12.8498 30.0649L12.8531 30.0774L12.857 30.091L12.8609 30.1045L12.8649 30.1172L12.869 30.1306L12.873 30.1441L12.8769 30.1568L12.8809 30.1705L12.8855 30.1832L12.8903 30.1957L12.895 30.2084L12.8998 30.2212L12.9038 30.2339L12.9086 30.2473L12.9133 30.2601L12.9181 30.2728L12.9228 30.2855L12.9276 30.2983L12.9323 30.311L12.9371 30.3237L12.942 30.3362L12.9466 30.349L12.9515 30.3617L12.957 30.3744L12.9626 30.3872L12.9672 30.3999L12.9721 30.4126L12.9767 30.4251L12.9816 30.4379L12.9864 30.4506L12.992 30.4633L12.9975 30.4761L13.0031 30.4888L13.0087 30.5015L13.0142 30.5143L13.0198 30.5268L13.0253 30.5395L13.0309 30.5522L13.0364 30.565L13.042 30.5777L13.0476 30.5904L13.0531 30.6022L13.0596 30.615L13.0658 30.627L13.0721 30.6395L13.0786 30.6516L13.0848 30.6634L13.0913 30.6754L13.0976 30.6872L13.104 30.6993L13.1103 30.7111L13.1172 30.7229L13.1237 30.7349L13.1302 30.7467L13.1365 30.7588L13.1436 30.7706L13.1506 30.7826L13.1571 30.7944L13.1635 30.8065L13.1698 30.8183L13.177 30.8301L13.1835 30.8421L13.1904 30.8532L13.1976 30.865L13.2048 30.8761L13.2119 30.8882L13.2189 30.9L13.2263 30.9111L13.2332 30.9222L13.2404 30.9333L13.2476 30.9444L13.2548 30.9565L13.2619 30.9683L13.2698 30.9794L13.277 30.9905L13.2842 31.0026L13.2911 31.0137L13.2985 31.0248L13.3064 31.0359L13.3143 31.047L13.3224 31.0588L13.3302 31.0699L13.3381 31.081L13.3462 31.0922L13.3541 31.1033L13.362 31.1144L13.3698 31.1255L13.3779 31.1366L13.3865 31.1477L13.3953 31.1588L13.4032 31.1699L13.4113 31.1811L13.4191 31.1922L13.427 31.2033L13.4358 31.2137L13.4446 31.2239L13.4534 31.235L13.462 31.2454L13.4708 31.2565L13.4796 31.267L13.4881 31.2771L13.4969 31.2876L13.5057 31.2977L13.5145 31.3082L13.5231 31.3184L13.5319 31.3288L13.5407 31.3392L13.5493 31.3494L13.5581 31.3598L13.5669 31.37L13.5764 31.3804L13.5858 31.3908L13.5946 31.401L13.6041 31.4105L13.6136 31.4209L13.6231 31.4304L13.6328 31.4408L13.6414 31.451L13.6509 31.4614L13.6606 31.4707L13.6699 31.4804L13.6796 31.4899L13.6891 31.4994L13.6986 31.5098L13.7081 31.5193L13.7176 31.5288L13.7273 31.5383L13.7366 31.548L13.7463 31.5573L13.7567 31.567L13.766 31.5765L13.7757 31.586L13.7859 31.5955L13.7956 31.605L13.8049 31.6147L13.8153 31.624L13.8257 31.633L13.8359 31.6416L13.8463 31.6511L13.8567 31.6608L13.8669 31.6693L13.8773 31.6781L13.8875 31.6876L13.8979 31.6971L13.9084 31.7059L13.9195 31.7147L13.9306 31.7233L13.9417 31.7321L13.9519 31.7409L13.9623 31.7497L13.9734 31.7582L13.9836 31.767L13.9947 31.7749L14.0051 31.7837L14.0162 31.7925L14.0274 31.8013L14.0385 31.8099L14.0489 31.818L14.06 31.8265L14.0711 31.8347L14.0822 31.8432L14.0933 31.852L14.1045 31.8599L14.1156 31.868L14.1274 31.8759L14.1385 31.8837L14.1496 31.8916L14.1607 31.8997L14.1718 31.9076L14.1829 31.9155L14.1941 31.9236L14.2061 31.9314L14.2179 31.9384L14.2297 31.9465L14.2408 31.9543L14.2529 31.9625L14.2647 31.9703L14.2758 31.9773L14.2878 31.9847L14.2996 31.9916L14.3117 31.9988L14.3235 32.006L14.3355 32.0132L14.348 32.0203L14.3601 32.0273L14.3719 32.0347L14.3855 32.0426L22.6968 36.9018L22.707 36.908L22.7158 36.9127L22.7253 36.9175L22.7348 36.9222L22.7445 36.927L22.753 36.9326L22.7625 36.9372L22.7723 36.9421L22.7815 36.9469L22.7912 36.9525L22.8007 36.9571L22.8102 36.962L22.8197 36.9666L22.8294 36.9715L22.8387 36.9761L22.8484 36.9812L22.8579 36.9858L22.8674 36.9905L22.8762 36.9953L22.8857 37L22.8952 37.0048L22.9047 37.009L22.9142 37.0136L22.9239 37.0175L22.9332 37.0215L22.9429 37.0257L22.9524 37.0303L22.9619 37.0349L22.9714 37.0391L22.9811 37.0437L22.9904 37.0479L23.0001 37.0518L23.0096 37.0558L23.0191 37.0597L23.0286 37.0636L23.038 37.0676L23.0478 37.0715L23.057 37.0757L23.0668 37.0796L23.0762 37.0826L23.0867 37.0868L23.0959 37.0907L23.1057 37.0946L23.1151 37.0986L23.1246 37.1025L23.1341 37.1058L23.1439 37.1097L23.1531 37.1129L23.1628 37.1162L23.173 37.1192L23.1827 37.1224L23.1913 37.1257L23.2122 37.1319L23.2318 37.1384L23.2517 37.144L23.2717 37.1495L23.2913 37.1551L23.3112 37.1606L23.3312 37.1662L23.3511 37.1717L23.3707 37.1773L23.3907 37.1819L23.4106 37.1866L23.4305 37.1914L23.4502 37.1954L23.4701 37.2002L23.49 37.2042L23.5097 37.2081L23.5296 37.212L23.5495 37.2153L23.5694 37.2192L23.5891 37.2224L23.609 37.2257L23.6298 37.2287L23.6495 37.2319L23.6703 37.2343L23.6907 37.2366L23.7116 37.2391L23.7322 37.2407L23.7518 37.2424L23.7727 37.244L23.7924 37.2454L23.8132 37.247L23.8338 37.2486L23.8535 37.2502L23.8734 37.2509L23.8933 37.2519L23.9139 37.2525H24.0155L24.0364 37.2519H24.0568L24.0776 37.2509L24.0982 37.2502L24.1188 37.2486L24.1394 37.247L24.1602 37.2463L24.1806 37.2447L24.2015 37.2431L24.2221 37.2414L24.2417 37.2398L24.2626 37.2375L24.2832 37.2352L24.3029 37.2329L24.3237 37.2306L24.3434 37.2273L24.3642 37.2241L24.3839 37.2208L24.4047 37.2176L24.4244 37.2146L24.4443 37.2106L24.4642 37.2074L24.4848 37.2035L24.5045 37.1995L24.5244 37.1947L24.5443 37.1907L24.5643 37.1861L24.5839 37.1812L24.6038 37.1766L24.6238 37.1717L24.6437 37.1662L24.6633 37.1606L24.6833 37.1551L24.7032 37.1495L24.7238 37.143L24.7333 37.1398L24.7428 37.1368L24.7523 37.1335L24.7627 37.1303L24.7722 37.1273L24.7826 37.1241L24.7918 37.1208L24.8016 37.1176L24.812 37.1146L24.8212 37.1113L24.831 37.1081L24.8412 37.1041L24.8509 37.1009L24.8611 37.0979L24.8706 37.0937L24.8803 37.0907L24.8895 37.0875L24.8993 37.0842L24.9095 37.0803L24.9192 37.0771L24.9284 37.0731L24.9382 37.0692L24.9477 37.0652L24.9571 37.0613L24.9666 37.0574L24.9761 37.0534L24.9859 37.0493L24.9951 37.0453L25.0048 37.0414L25.0143 37.0375L25.0238 37.0328L25.0333 37.028L25.043 37.024L25.0523 37.0194L25.062 37.0145L25.0715 37.0104L25.081 37.0057L25.0905 37.0011L25.1 36.9962L25.1088 36.9916L25.1183 36.9868L25.1278 36.9819L25.1375 36.9773L25.1468 36.9724L25.1565 36.9678L25.166 36.9629L25.1755 36.9583L25.185 36.9532L25.1938 36.9486L25.2033 36.9439L25.2128 36.9391L25.2232 36.9335L34.4309 31.802L34.442 31.7965L34.4524 31.7909L34.4617 31.7853L34.4714 31.7798L34.4809 31.7742L34.4904 31.7677L34.5008 31.7622L34.5103 31.7566L34.5198 31.7511L34.5293 31.7455L34.5388 31.7393L34.5485 31.733L34.5578 31.7275L34.5675 31.7219L34.577 31.7163L34.5865 31.7099L34.596 31.7036L34.6054 31.6981L34.6152 31.6916L34.6244 31.686L34.6332 31.6798L34.642 31.6733L34.6508 31.667L34.6596 31.6608L34.6682 31.6543L34.6779 31.648L34.6865 31.6416L34.696 31.6353L34.7048 31.6288L34.7136 31.6226L34.7224 31.6161L34.7309 31.6098L34.7397 31.6036L34.7492 31.5971L34.758 31.5902L34.7668 31.5837L34.7754 31.5765L34.7842 31.5703L34.793 31.5631L34.8018 31.5559L34.8103 31.5487L34.8191 31.5425L34.8279 31.536L34.8365 31.529L34.8446 31.5216L34.8532 31.5147L34.862 31.5075L34.8699 31.501L34.8786 31.4941L34.8874 31.486L34.8953 31.479L34.9041 31.4716L34.912 31.4647L34.9199 31.4575L34.928 31.4494L34.9368 31.4425L34.9446 31.4343L34.9525 31.4274L34.9604 31.4193L34.9685 31.4114L34.9764 31.4042L34.9842 31.3964L34.9923 31.3892L35.0002 31.3811L35.0081 31.3732L35.0159 31.3654L35.024 31.3575L35.031 31.3494L35.0391 31.3415L35.046 31.3336L35.0541 31.3255L35.062 31.3177L35.0701 31.3098L35.0771 31.3017L35.0842 31.2938L35.0914 31.2859L35.0986 31.2781L35.1065 31.27L35.1136 31.2621L35.1208 31.2542L35.128 31.2461L35.1349 31.2382L35.1424 31.2304L35.1493 31.2225L35.1565 31.2144L35.1637 31.2058L35.1708 31.197L35.178 31.1882L35.185 31.1804L35.1924 31.1723L35.1993 31.1644L35.2065 31.1556L35.2137 31.1477L35.2208 31.1389L35.2273 31.1311L35.2336 31.1223L35.2401 31.1137L35.2463 31.1056L35.2533 31.097L35.2597 31.0882L35.2662 31.0794L35.2725 31.0709L35.279 31.0621L35.2852 31.0533L35.2915 31.0445L35.2979 31.0359L35.3042 31.0271L35.3107 31.0183L35.3169 31.0095L35.3234 31.0009L35.3297 30.9921L35.3352 30.9833L35.3408 30.9741L35.347 30.9644L35.3535 30.9556L35.3591 30.947L35.3646 30.9382L35.3709 30.9287L35.3774 30.9199L35.3829 30.9111L35.3885 30.9018L35.394 30.8921L35.3996 30.8826L35.4051 30.8731L35.4107 30.8643L35.4162 30.8548L35.4218 30.8453L35.4274 30.8366L35.4329 30.8271L35.4385 30.8176L35.444 30.8078L35.4487 30.7986L35.4535 30.7889L35.4591 30.7794L35.4646 30.7699L35.4693 30.7604L35.4751 30.7509L35.4806 30.7412L35.4852 30.7319L35.4899 30.7222L35.4947 30.7118L35.4994 30.7025L35.5052 30.6928L35.5107 30.6833L35.5153 30.6738L35.5202 30.6643L35.5248 30.6548L35.5297 30.6444L35.5343 30.6349L35.5392 30.6254L35.5438 30.615L35.5489 30.6055L35.5535 30.596L35.5582 30.5856L35.563 30.5754L35.5677 30.565L35.5725 30.5555L35.5767 30.546L35.5806 30.5356L35.5846 30.5254L35.5885 30.515L35.5924 30.5055L35.5964 30.4951L35.6003 30.4849L35.6045 30.4744L35.6084 30.465L35.6123 30.4545L35.6163 30.4444L35.6202 30.4339L35.6242 30.4237L35.6281 30.4133L35.6313 30.4029L35.6346 30.3927L35.6378 30.3823L35.6408 30.3721L35.6448 30.3617L35.6489 30.3515L35.6529 30.3411L35.6568 30.3307L35.66 30.3205L35.664 30.3101L35.667 30.2999L35.6702 30.2895L35.6742 30.279L35.6774 30.2689L35.6806 30.2584L35.6839 30.2482L35.6869 30.2378L35.6892 30.2276L35.6925 30.2172L35.6957 30.2068L35.6989 30.1966L35.7019 30.1862L35.7043 30.176L35.7068 30.1649L35.7101 30.1545L35.7124 30.1441L35.7147 30.133L35.7179 30.1228L35.7202 30.1123L35.7226 30.1022L35.7249 30.0917L35.7274 30.0806L35.7297 30.0704L35.732 30.06L35.7339 30.0489L35.7362 30.0378L35.7385 30.0274L35.7401 30.0163L35.7425 30.0061L35.7448 29.995L35.7471 29.9838L35.7496 29.9734L35.752 29.9623L35.7536 29.9512L35.7559 29.9401L35.7575 29.9299L35.7598 29.9195L35.7617 29.9084L35.7631 29.8973L35.7647 29.8861L35.7663 29.875L35.7679 29.8639L35.7696 29.8528L35.7712 29.8417L35.7719 29.8306L35.7735 29.8202L35.7742 29.809L35.7758 29.7979L35.7774 29.7877L35.779 29.7766L35.7797 29.7655L35.7807 29.7544L35.7814 29.7433L35.7823 29.7322L35.7839 29.7211L35.7846 29.71L35.7853 29.6988L35.7862 29.6877L35.7869 29.6766L35.7878 29.6655L35.7885 29.6544L35.7895 29.6433L35.7902 29.6322L35.7909 29.6211L35.7918 29.6099L35.7925 29.5988V29.5766L35.7934 29.5655V18.5743L35.7925 18.5646L35.7918 18.5542V18.544L35.7909 18.5336V18.5232L35.7902 18.513V18.5026L35.7895 18.4924L35.7885 18.4827L35.7878 18.4725L35.7869 18.4621L35.7862 18.4519L35.7853 18.4424L35.7846 18.432L35.7839 18.4225L35.783 18.412L35.7814 18.4019L35.7807 18.3924L35.7797 18.3826L35.7784 18.3734L35.7774 18.3637L35.7758 18.3532L35.7751 18.344L35.7735 18.3343L35.7719 18.3241L35.7712 18.3136L35.7702 18.3042L35.7686 18.2954L35.7656 18.2745L35.7633 18.2541L35.7601 18.2335L35.7568 18.2139L35.7529 18.194L35.7489 18.174L35.7457 18.1541L35.7418 18.1344L35.7371 18.1145L35.7323 18.0946L35.7276 18.0747L35.7228 18.055L35.7179 18.0351L35.7133 18.0152L35.7084 17.9955L35.7029 17.9756L35.6973 17.9557L35.6918 17.9358L35.6853 17.9161L35.6797 17.8969L35.6735 17.8779L35.667 17.8589L35.6607 17.8397L35.6545 17.8207L35.6473 17.8017L35.6401 17.7825L35.633 17.7645L35.626 17.7453L35.6186 17.7263L35.6117 17.7073L35.6036 17.6888L35.5966 17.67L35.5885 17.6515L35.5806 17.6334L35.5725 17.6149L35.564 17.5969L35.5559 17.5786L35.5473 17.5603L35.5385 17.542L35.5297 17.5246L35.5204 17.5063L35.5114 17.488L35.5021 17.4697L35.4924 17.4524L35.4829 17.4348L35.4734 17.4174L35.4639 17.4001L35.4542 17.3825L35.444 17.3651L35.4336 17.3475L35.4234 17.3301L35.4123 17.3125L35.4019 17.2959L35.3917 17.2792L35.3806 17.2625L35.3692 17.2459L35.3581 17.2292L35.347 17.2125L35.3359 17.1959L35.3248 17.1792L35.313 17.1634L35.3012 17.1475L35.2891 17.1315L35.2773 17.1157L35.2653 17.0998L35.2526 17.084L35.2401 17.0681L35.2273 17.0521L35.2146 17.0363L35.2019 17.0213L35.1884 17.0062L35.1757 16.991L35.162 16.9759L35.1486 16.9609L35.1352 16.9458L35.1217 16.9308L35.1081 16.9157L35.094 16.9014L35.0796 16.887L35.0653 16.8726L35.0509 16.8585L35.0368 16.8442L35.0215 16.8298L35.0064 16.8157L34.9914 16.802L34.9764 16.7886L34.9613 16.7752L34.9463 16.7615L34.931 16.7481L34.9152 16.7347L34.8993 16.7219L34.8835 16.7092L34.8685 16.6965L34.8518 16.683L34.8446 16.6775L34.8365 16.671L34.8286 16.6647L34.8208 16.6585L34.8129 16.652L34.8048 16.6464L34.7969 16.6402L34.789 16.6337L34.7803 16.6275L34.7715 16.621L34.7636 16.6147L34.7557 16.6082L34.7476 16.602L34.7397 16.5964L34.7319 16.5902L34.7231 16.5837L34.7152 16.5781L34.7071 16.5726L34.6985 16.5663L34.6897 16.5608L34.6809 16.5552L34.6731 16.5497L34.6643 16.5441L34.6557 16.5386L34.6469 16.533L34.6381 16.5274L34.6293 16.5219L34.6207 16.5163L34.6119 16.5108L34.6031 16.5052L34.5943 16.4997L34.5858 16.495L34.577 16.4902L34.5666 16.4846L25.582 11.2133L25.5695 11.2056L25.558 11.1991L25.5459 11.1922L25.5341 11.185L25.5225 11.1783L25.5105 11.1721L25.4989 11.1656L25.4871 11.1593L25.4751 11.1531L25.4633 11.1466L25.4517 11.1403L25.4396 11.1339L25.4278 11.1276L25.4158 11.1211L25.404 11.1149L25.392 11.1084L25.3801 11.1021L25.3681 11.0966L25.3561 11.0903L25.3443 11.0848L25.3322 11.0792L25.3204 11.0727L25.3081 11.0672L25.2961 11.0616L25.2843 11.0561L25.2718 11.0505L25.26 11.045L25.2479 11.0403L25.2357 11.0348L25.2236 11.0292L25.2118 11.0237L25.1993 11.0188L25.1875 11.0142L25.1748 11.0093L25.1625 11.0037L25.15 10.9991L25.1373 10.9933L25.1245 10.9887L25.1123 10.9841L25.1 10.979L25.0875 10.9743L25.0748 10.9697L25.0623 10.9648L25.0502 10.9602L25.0384 10.956L25.0264 10.9521L25.0136 10.9475L25.0009 10.9433L24.9891 10.9394L24.9764 10.9354L24.9636 10.9315L24.9518 10.9276L24.9391 10.9234L24.9264 10.9195L24.9136 10.9155L24.9018 10.9116L24.8891 10.9077L24.8763 10.9037L24.8636 10.8998L24.8509 10.8965L24.8381 10.8926L24.8256 10.8894L24.8129 10.8854L24.8002 10.8822L24.7874 10.8789L24.7747 10.8759L24.762 10.872L24.7492 10.8688L24.7367 10.8655L24.724 10.8632L24.7113 10.86L24.6985 10.8567L24.6858 10.8537L24.6731 10.8514L24.6603 10.8482L24.6476 10.8458L24.6351 10.8435L24.6224 10.8401L24.6096 10.8377L24.5969 10.8354L24.5842 10.8331L24.5714 10.8308L24.5587 10.8282L24.546 10.8259L24.5325 10.8236L24.5198 10.8218L24.5071 10.8204L24.4946 10.8188L24.4818 10.8171L24.4691 10.8148L24.4564 10.8125L24.4436 10.8106L24.4302 10.8083L24.4175 10.8067L24.4047 10.8044L24.392 10.8028L24.3793 10.8012L24.3665 10.7995L24.354 10.7981L24.3413 10.7965L24.3276 10.7949L24.3151 10.794L24.3024 10.7926L24.2897 10.791L24.2769 10.79L24.2642 10.7893L24.2515 10.7884L24.2387 10.7877L24.226 10.787L24.2126 10.7861L24.1991 10.7854L24.1864 10.7845L24.1737 10.7838H24.1609L24.1482 10.7829L24.1355 10.7822H24.122L24.1093 10.7815L24.0966 10.7806L24.0848 10.7799L24.072 10.7789H24.0459L24.0331 10.7782H24.0077L23.9949 10.7836V10.7836Z" fill="#C9177E"/>
<path d="M17.9526 32.1606V15.708H21.3947V21.7008H27.1048V15.708H30.557V32.1606H27.1048V24.9667H21.3947V32.1606H17.9526Z" fill="white"/>
</svg>
